#!OML:ASF H:\charlestonDancing\Project 1\Capture day 1\Session 1\femaleDancer.ASF
:FULLY-SPECIFIED
:DEGREES
475
root -1.86773 17.6817 -2.96366 489.594 -89.0457 -497.132
lowerback 1.07181 -0.747855 2.50533
upperback -5.40266 -0.962765 0.573911
thorax -6.23869 -0.629489 -0.738212
lowerneck 9.0542 -13.0775 -7.17638
upperneck -4.72985 -17.9797 6.14319
head -1.80859 -9.061 3.80729
rclavicle 5.36719e-015 -2.90226e-014
rhumerus -30.0851 32.2672 -96.5905
rradius 34.9012
rwrist 20.1981
rhand -23.7807 -27.1513
rfingers 7.12502
rthumb 2.68915 -57.1141
lclavicle 5.36719e-015 -2.90226e-014
lhumerus -60.9884 7.81028 28.1165
lradius 146.203
lwrist -21.4283
lhand -11.0243 -6.44892
lfingers 7.12502
lthumb 14.9971 22.988
rfemur 1.09517 5.17004 24.8083
rtibia 35.4124
rfoot -21.4301 -3.52913
rtoes -14.5041
lfemur 7.46792 -1.77125 -23.8169
ltibia 30.8221
lfoot -12.6824 -13.1119
ltoes -6.36704
476
root -1.87115 17.6845 -2.98628 510.14 -88.8621 -517.39
lowerback 0.96639 -0.653062 2.34973
upperback -5.55385 -0.855994 0.450421
thorax -6.33391 -0.576976 -0.786135
lowerneck 9.02644 -13.6601 -7.84342
upperneck -3.52596 -18.8666 6.15799
head -1.27173 -9.51956 3.8217
rclavicle 2.18663e-015 -1.07344e-014
rhumerus -29.7761 32.9098 -96.7662
rradius 35.9274
rwrist 19.9355
rhand -23.7847 -26.9321
rfingers 7.12502
rthumb 2.6853 -56.8949
lclavicle 2.18663e-015 -1.07344e-014
lhumerus -62.5582 6.14314 32.0449
lradius 147.214
lwrist -20.3687
lhand -14.5562 -7.13087
lfingers 7.12502
lthumb 11.5927 22.5285
rfemur 0.629657 5.2653 24.6211
rtibia 35.6617
rfoot -21.3403 -3.2693
rtoes -14.3037
lfemur 7.15746 -1.70639 -23.965
ltibia 30.8601
lfoot -12.5063 -13.0277
ltoes -5.45517
477
root -1.87418 17.6952 -3.00937 523.416 -88.5857 -530.307
lowerback 0.831069 -0.572689 2.22801
upperback -5.70926 -0.767685 0.349251
thorax -6.41755 -0.534935 -0.828877
lowerneck 10.7935 -13.7701 -8.81985
upperneck -4.98143 -19.1623 7.8659
head -1.58535 -9.72968 4.27941
rclavicle 8.34896e-015 -1.61016e-014
rhumerus -29.5199 33.1484 -96.8128
rradius 37.1287
rwrist 19.7728
rhand -23.7517 -26.7006
rfingers 7.12502
rthumb 2.71712 -56.663
lclavicle 8.34896e-015 -1.61016e-014
lhumerus -64.3297 4.52392 36.5271
lradius 148.002
lwrist -19.4458
lhand -17.9383 -7.95359
lfingers 7.12502
lthumb 8.32988 21.8622
rfemur 0.0939177 5.4039 24.4471
rtibia 35.8668
rfoot -21.3415 -3.06803
rtoes -14.1974
lfemur 6.81629 -1.59683 -24.0875
ltibia 30.7547
lfoot -12.379 -12.8995
ltoes -5.10613
478
root -1.88061 17.705 -3.03087 537.001 -88.4545 -543.589
lowerback 0.688299 -0.612383 1.95985
upperback -5.78628 -0.843616 0.258826
thorax -6.41597 -0.563372 -0.76901
lowerneck 11.2521 -13.903 -9.48192
upperneck -4.99274 -19.4501 8.33739
head -1.52558 -9.8912 4.52324
rclavicle 6.65929e-015 2.52457e-014
rhumerus -29.2816 33.4109 -96.7732
rradius 38.5086
rwrist 19.3613
rhand -23.6743 -26.7149
rfingers 7.12502
rthumb 2.79195 -56.6764
lclavicle 6.65929e-015 2.52457e-014
lhumerus -66.213 3.31533 41.3231
lradius 148.409
lwrist -19.1556
lhand -19.6551 -9.03453
lfingers 7.12502
lthumb 6.67276 20.8403
rfemur -0.312258 5.43769 24.1183
rtibia 36.0166
rfoot -21.4425 -2.95622
rtoes -13.8011
lfemur 6.61863 -1.45668 -24.3435
ltibia 30.4954
lfoot -12.294 -12.8289
ltoes -5.5156
479
root -1.88973 17.713 -3.05192 547.994 -88.4097 -554.339
lowerback 0.517657 -0.73283 1.73018
upperback -5.74827 -1.02179 0.184556
thorax -6.27889 -0.640431 -0.709727
lowerneck 10.9782 -13.9904 -10.0196
upperneck -4.39017 -19.6345 8.49505
head -1.21924 -9.98876 4.57111
rclavicle 1.22253e-014 -1.39149e-014
rhumerus -28.9691 33.6873 -96.6564
rradius 39.9574
rwrist 18.6019
rhand -23.8978 -26.9496
rfingers 7.12502
rthumb 2.57607 -56.9137
lclavicle 1.22253e-014 -1.39149e-014
lhumerus -67.9296 2.65448 45.8468
lradius 148.41
lwrist -20.1851
lhand -19.3958 -10.1227
lfingers 7.12502
lthumb 6.92308 19.7441
rfemur -0.598899 5.34996 23.8378
rtibia 36.0821
rfoot -21.5034 -2.99512
rtoes -14.0794
lfemur 6.5475 -1.37501 -24.5716
ltibia 30.153
lfoot -12.3455 -12.7568
ltoes -6.3121
480
root -1.90125 17.7184 -3.07382 552.8 -88.4205 -559.021
lowerback 0.400196 -0.874033 1.67513
upperback -5.62282 -1.21388 0.15012
thorax -6.08266 -0.730035 -0.707109
lowerneck 10.6762 -14.0272 -10.3518
upperneck -4.05587 -19.7081 8.6246
head -1.02103 -10.027 4.60047
rclavicle -3.37934e-015 -1.23246e-014
rhumerus -28.6634 34.0103 -96.5684
rradius 41.3045
rwrist 17.5598
rhand -24.312 -27.4556
rfingers 7.12502
rthumb 2.17599 -57.4242
lclavicle -3.37934e-015 -1.23246e-014
lhumerus -69.5005 2.34866 50.151
lradius 147.468
lwrist -24.3296
lhand -20.8246 -11.5117
lfingers 7.12502
lthumb 5.54372 18.3958
rfemur -0.695535 5.26235 23.7705
rtibia 36.0625
rfoot -21.4947 -3.0731
rtoes -14.7064
lfemur 6.63189 -1.36161 -24.6403
ltibia 29.7987
lfoot -12.4876 -12.6783
ltoes -6.50072
481
root -1.90931 17.7238 -3.09835 547.989 -88.5079 -554.113
lowerback 0.315516 -1.02702 1.82087
upperback -5.44171 -1.40701 0.221211
thorax -5.84945 -0.825835 -0.708375
lowerneck 10.3152 -14.0573 -10.4974
upperneck -3.94836 -19.7319 8.68051
head -0.911405 -10.0338 4.59578
rclavicle -3.77691e-015 3.97569e-015
rhumerus -28.3347 34.6113 -96.478
rradius 42.4535
rwrist 16.347
rhand -24.5326 -28.1232
rfingers 7.12502
rthumb 1.96303 -58.0939
lclavicle -3.77691e-015 3.97569e-015
lhumerus -70.7067 2.2017 54.912
lradius 146.317
lwrist -26.8502
lhand -21.4408 -11.9013
lfingers 7.12502
lthumb 4.94874 18.0209
rfemur -0.712229 5.31369 24.0368
rtibia 35.9589
rfoot -21.4482 -3.11481
rtoes -14.9162
lfemur 6.71447 -1.35058 -24.3998
ltibia 29.484
lfoot -12.7087 -12.5856
ltoes -6.35604
482
root -1.9082 17.7294 -3.12719 539.334 -88.6096 -545.296
lowerback 0.300955 -1.17566 1.95944
upperback -5.29211 -1.5927 0.329243
thorax -5.68924 -0.917458 -0.666582
lowerneck 10.1141 -14.0557 -10.6263
upperneck -4.06442 -19.7124 8.92372
head -0.879604 -10.0256 4.66699
rclavicle 5.96354e-015 9.14409e-015
rhumerus -28.0754 35.3758 -96.4157
rradius 43.4293
rwrist 15.2551
rhand -24.6901 -28.4643
rfingers 7.12502
rthumb 1.8109 -58.4364
lclavicle 5.96354e-015 9.14409e-015
lhumerus -71.4944 1.94247 60.3755
lradius 145.259
lwrist -25.1048
lhand -20.58 -11.6276
lfingers 7.12502
lthumb 5.77987 18.2736
rfemur -0.795259 5.55136 24.4389
rtibia 35.7917
rfoot -21.3619 -3.18046
rtoes -14.5392
lfemur 6.65577 -1.26719 -24.0197
ltibia 29.2304
lfoot -13.0414 -12.5346
ltoes -6.81884
483
root -1.90287 17.7307 -3.15678 535.344 -88.7479 -541.23
lowerback 0.440953 -1.31997 1.94427
upperback -5.1465 -1.77635 0.368141
thorax -5.61917 -1.00256 -0.607047
lowerneck 9.97368 -14.0796 -10.6075
upperneck -4.23098 -19.7142 9.16035
head -0.884634 -10.0306 4.72614
rclavicle 1.64991e-014 3.97569e-015
rhumerus -27.9164 36.2075 -96.4546
rradius 44.1481
rwrist 14.4906
rhand -24.8872 -28.5344
rfingers 7.12502
rthumb 1.62046 -58.508
lclavicle 1.64991e-014 3.97569e-015
lhumerus -72.0901 0.674134 68.5418
lradius 144.259
lwrist -14.9958
lhand -21.7948 -9.74155
lfingers 7.12502
lthumb 4.60696 20.1884
rfemur -0.780222 5.77141 24.6984
rtibia 35.5993
rfoot -21.1643 -3.2541
rtoes -14.003
lfemur 6.66144 -1.15572 -23.782
ltibia 29.0234
lfoot -13.302 -12.5901
ltoes -7.10303
